<?xml version="1.0" encoding="utf-8"?>
<!-- Generator: Adobe Illustrator 25.2.0, SVG Export Plug-In . SVG Version: 6.00 Build 0)  -->
<svg version="1.1" id="Layer_2_1_" xmlns="http://www.w3.org/2000/svg" xmlns:xlink="http://www.w3.org/1999/xlink" x="0px" y="0px"
	 viewBox="0 0 380.7 279.6" style="enable-background:new 0 0 380.7 279.6;" xml:space="preserve">
<style type="text/css">
	.st0{fill:#FFFFFF;stroke:#000000;stroke-miterlimit:10;}
</style>
<g id="Layer_1-2">
	<g>
		<path class="st0" d="M380.7,194.6v79.5c0,3-2.5,5.5-5.5,5.5H5.5c-3,0-5.5-2.5-5.5-5.5V200c0-3,2.5-5.5,5.5-5.5h84
			c2.1,0,4,1.2,4.9,3.1c5,10.3,9.1,20.7,15.4,29.5c24,33.3,57.3,47.5,97.6,40.4c39-6.8,64.6-30.9,77.2-68.6c0.9-2.6,1-4.8,4.9-4.8
			c29.8,0.2,59.6,0.2,89.4,0.2C379.4,194.3,379.9,194.5,380.7,194.6L380.7,194.6z"/>
		<path class="st0" d="M380.7,65v81.8h-94.1c-16.2-47.7-48.6-75.7-100-74.1c-47.7,1.5-77.5,29.1-92.4,74.1H0V67.2
			c0-2.9,2.4-5.3,5.3-5.3h372.3C379.3,61.9,380.7,63.3,380.7,65z M341.4,81.7c-12.2-0.1-21.8,9.3-21.8,21.2
			c0,12.1,9.4,21.8,21.3,21.9c11.6,0.1,21.8-10.1,21.7-21.7C362.6,91.4,353.1,81.8,341.4,81.7z"/>
		<path class="st0" d="M285.2,13.2H372c1.6,0,3,2,3.5,5c1.7,11.7,3.4,23.4,5.1,35.2c0.6,4.3-1.1,8.5-3.5,8.5h-97
			c-2.4,0-4.1-4.2-3.5-8.5c1.7-11.8,3.4-23.5,5.1-35.2C282.1,15.2,283.6,13.2,285.2,13.2z"/>
		<path class="st0" d="M190.3,256.9c-47.7,0-86.4-38.8-86.3-86.5c0.1-47.4,39-85.9,86.5-85.8c47.6,0.2,86,38.6,86,86.2
			C276.5,218.3,237.8,256.9,190.3,256.9L190.3,256.9z M122.6,170.5c0,37.5,30.2,68.1,67.3,68c37.7,0,68-30.3,68.1-67.8
			c0-37.2-30.4-67.8-67.6-67.8C153.2,102.9,122.6,133.3,122.6,170.5L122.6,170.5z"/>
		<path class="st0" d="M380.7,159.9v21.6h-92.1v-21.6H380.7z"/>
		<path class="st0" d="M0.1,159.8h91.8v21.7H0.1V159.8z"/>
		<path class="st0" d="M313.7,25.7h29.9v23.7h-29.9V25.7z"/>
		<path class="st0" d="M340.9,112.2c-5.2-0.1-9.1-4.1-9-9.3c0.1-5,4.3-9.1,9.3-9s9,4.2,9,9.3C350.1,108.5,346.1,112.3,340.9,112.2
			L340.9,112.2z"/>
		<path class="st0" d="M209.7,117.4"/>
		<path class="st0" d="M159,206.8"/>
	</g>
</g>
</svg>
