<?xml version="1.0" encoding="utf-8"?>
<!-- Generator: Adobe Illustrator 25.2.0, SVG Export Plug-In . SVG Version: 6.00 Build 0)  -->
<svg version="1.1" id="Layer_2_1_" xmlns="http://www.w3.org/2000/svg" xmlns:xlink="http://www.w3.org/1999/xlink" x="0px" y="0px"
	 viewBox="0 0 288.1 310.6" style="enable-background:new 0 0 288.1 310.6;" xml:space="preserve">
<style type="text/css">
	.st0{fill:#FFFFFF;stroke:#000000;stroke-width:7;stroke-miterlimit:10;}
	.st1{fill:none;stroke:#000000;stroke-width:7;stroke-miterlimit:10;}
	.st2{fill:none;stroke:#FFFFFF;stroke-miterlimit:10;}
</style>
<polygon class="st0" points="109.4,180.3 145,201.9 183.5,180.3 183.5,134.3 146.8,113.6 109.4,135.4 "/>
<polygon class="st1" points="146.2,47.1 242.8,101.9 242.8,212.7 144.1,265 49.7,212.2 50.8,102.7 "/>
<polygon class="st1" points="141.1,153.8 54.5,101.5 146.2,47.1 238.9,100.3 "/>
<line class="st1" x1="144.1" y1="265" x2="142.5" y2="155.3"/>
<line class="st1" x1="190.9" y1="184.6" x2="195.7" y2="187.4"/>
<line class="st1" x1="146.7" y1="100.1" x2="146.5" y2="105.6"/>
<line class="st1" x1="146.4" y1="86.6" x2="146.5" y2="92.1"/>
<line class="st1" x1="146.3" y1="74.1" x2="146.5" y2="79.6"/>
<line class="st1" x1="146.5" y1="61.1" x2="146.6" y2="66.6"/>
<line class="st1" x1="202.9" y1="191.6" x2="207.7" y2="194.4"/>
<line class="st1" x1="214.6" y1="198" x2="219.4" y2="200.8"/>
<line class="st1" x1="226.6" y1="204.8" x2="231.4" y2="207.6"/>
<line class="st1" x1="96.7" y1="186.7" x2="102" y2="185.3"/>
<line class="st1" x1="85.1" y1="193" x2="90.4" y2="191.6"/>
<line class="st1" x1="73" y1="198.7" x2="78.3" y2="197.3"/>
<line class="st1" x1="61.8" y1="204.8" x2="67.2" y2="203.5"/>
<line class="st2" x1="142.5" y1="157.8" x2="144.1" y2="262.5"/>
<line class="st2" x1="241.6" y1="212.3" x2="149.8" y2="262.8"/>
<line class="st2" x1="138.6" y1="263.7" x2="47.9" y2="211.4"/>
<line class="st2" x1="49.7" y1="209.2" x2="49.7" y2="104.5"/>
<line class="st2" x1="54" y1="99.5" x2="144.7" y2="47.1"/>
<line class="st2" x1="148" y1="47.1" x2="238.6" y2="99.5"/>
<line class="st2" x1="142" y1="152.8" x2="51.4" y2="100.5"/>
<line class="st2" x1="242.8" y1="207.7" x2="242.8" y2="102.9"/>
<line class="st2" x1="145.7" y1="150.9" x2="237.4" y2="100.3"/>
</svg>
